<?xml version="1.0" encoding="UTF-8"?>
<svg version="1.1" xmlns="http://www.w3.org/2000/svg" width="256" height="256">
<path d="M0 0 C1.1714412 -0.00657338 1.1714412 -0.00657338 2.36654788 -0.01327956 C4.99191102 -0.02666859 7.61724058 -0.03284666 10.24263 -0.03897095 C12.12169547 -0.04687186 14.00075943 -0.0551408 15.87982178 -0.06375122 C22.05844167 -0.08997347 28.23706836 -0.10527945 34.41572571 -0.11953735 C36.54250912 -0.12489702 38.66929249 -0.13027453 40.79607582 -0.13566971 C49.64303723 -0.15729906 58.4899968 -0.17603569 67.33697796 -0.1872921 C80.01635876 -0.2035306 92.69543308 -0.23670551 105.37469834 -0.29369295 C114.28945982 -0.33239466 123.20413933 -0.3519251 132.11898261 -0.35721266 C137.44354271 -0.36086589 142.76777594 -0.37288432 148.0922451 -0.4053154 C153.10329742 -0.43539976 158.11382513 -0.44170643 163.1249485 -0.42993164 C164.9615385 -0.42971094 166.79815287 -0.43801347 168.63465881 -0.45558548 C185.9730821 -0.61241749 185.9730821 -0.61241749 192.40400696 5.15390015 C195.40400696 9.93515015 195.40400696 9.93515015 195.40400696 13.15390015 C196.42349426 13.14342651 197.44298157 13.13295288 198.49336243 13.12216187 C202.26904297 13.08601287 206.04470817 13.06301838 209.82051086 13.04403687 C211.45595368 13.0339676 213.09137845 13.02031134 214.72676086 13.00302124 C217.07495066 12.9788131 219.42290283 12.96742657 221.77119446 12.95858765 C222.50458038 12.94826508 223.23796631 12.9379425 223.99357605 12.92730713 C225.79863393 12.92690646 227.60308526 13.0317726 229.40400696 13.15390015 C232.20513595 15.95502914 231.6555173 17.68090566 231.65797424 21.60702515 C231.66265422 22.6120256 231.66265422 22.6120256 231.66742873 23.6373291 C231.67543599 25.89294104 231.66907464 28.14828598 231.66279602 30.40390015 C231.66550468 32.01669473 231.6690649 33.62948807 231.67341614 35.24227905 C231.68255734 39.63061539 231.67898879 44.01885801 231.67265797 48.40719604 C231.66760691 52.99203755 231.67228692 57.57687084 231.6754303 62.16171265 C231.67907256 69.86224819 231.67426404 77.56274542 231.66474915 85.26327515 C231.6538641 94.17581249 231.65738949 103.08825833 231.66840196 112.00079346 C231.67746744 119.64242335 231.67876374 127.28402565 231.67352462 134.92565918 C231.67040084 139.49426779 231.67000671 144.06283334 231.6765976 148.63143921 C231.68235971 152.92581481 231.67839507 157.22007205 231.66680908 161.51443481 C231.6641564 163.09390058 231.6649379 164.67337626 231.66933441 166.25283813 C231.6747675 168.40228662 231.66798344 170.55135138 231.65797424 172.70077515 C231.65684317 174.5082019 231.65684317 174.5082019 231.65568924 176.35214233 C231.40400696 179.15390015 231.40400696 179.15390015 229.40400696 181.15390015 C227.16447449 181.40558243 227.16447449 181.40558243 224.31758118 181.40786743 C223.24071045 181.41350708 222.16383972 181.41914673 221.05433655 181.42495728 C219.86777466 181.42090881 218.68121277 181.41686035 217.45869446 181.41268921 C215.59038971 181.41794617 215.59038971 181.41794617 213.68434143 181.42330933 C210.26286233 181.43061872 206.84162415 181.4288841 203.42015839 181.42255116 C199.84429595 181.41749752 196.26844401 181.42218083 192.69258118 181.42532349 C186.6868657 181.428965 180.68119936 181.42415921 174.67549133 181.41464233 C167.72608184 181.4037574 160.77678969 181.40728285 153.82738304 181.41829515 C147.86726564 181.42736277 141.90718361 181.42865588 135.94706154 181.42341781 C132.38449301 181.4202952 128.82197968 181.41989667 125.25941467 181.42649078 C121.28933631 181.43332551 117.31939003 181.42386003 113.34931946 181.41268921 C111.56947662 181.4187619 111.56947662 181.4187619 109.75367737 181.42495728 C108.13837128 181.4164978 108.13837128 181.4164978 106.49043274 181.40786743 C105.08122055 181.40673635 105.08122055 181.40673635 103.64353943 181.40558243 C101.40400696 181.15390015 101.40400696 181.15390015 99.40400696 179.15390015 C99.17695618 176.35653687 99.17695618 176.35653687 99.20869446 172.83358765 C99.21513977 171.57675171 99.22158508 170.31991577 99.22822571 169.0249939 C99.25336243 167.04692749 99.25336243 167.04692749 99.27900696 165.02890015 C99.28903713 163.68906294 99.29816292 162.34921863 99.30635071 161.0093689 C99.32998621 157.72403442 99.36293462 154.4390555 99.40400696 151.15390015 C97.5890271 151.1638929 97.5890271 151.1638929 95.73738098 151.17408752 C84.32017298 151.23497006 72.90299803 151.27990715 61.48566437 151.30933666 C55.61625387 151.32497541 49.7469747 151.34618123 43.87763977 151.38021851 C38.21070062 151.41287544 32.54388758 151.43076663 26.87686157 151.43853188 C24.71757014 151.44406398 22.55828542 151.45486683 20.39904785 151.47109032 C17.36864949 151.4929485 14.33876866 151.49586353 11.30830383 151.49447632 C10.42069366 151.50526215 9.5330835 151.51604797 8.61857605 151.52716064 C1.77520562 151.49338547 -3.38747314 150.04984373 -9.34599304 146.52890015 C-17.20009488 138.23845932 -16.12019992 127.65750193 -15.98661804 116.9937439 C-15.9791468 115.23541409 -15.97345805 113.47707589 -15.96946716 111.71873474 C-15.95428024 107.11709123 -15.91505937 102.51596216 -15.87065125 97.91452026 C-15.82954775 93.20857703 -15.81142411 88.50254972 -15.79130554 83.79647827 C-15.74855749 74.582061 -15.68039153 65.36802355 -15.59599304 56.15390015 C-16.58599304 55.82390015 -17.57599304 55.49390015 -18.59599304 55.15390015 C-18.69763496 48.85521265 -18.76755965 42.55673761 -18.8157196 36.25741577 C-18.83580192 34.11573381 -18.86307342 31.97410645 -18.89775085 29.83261108 C-18.94641703 26.74946599 -18.96899594 23.66704752 -18.98661804 20.58358765 C-19.01758575 19.15355911 -19.01758575 19.15355911 -19.04917908 17.69464111 C-19.05114434 11.83717269 -18.43610456 8.64531597 -14.59599304 4.15390015 C-10.03637481 0.14696292 -5.84593455 0.00397051 0 0 Z M-8.04248905 10.95072174 C-10.37598252 14.26008074 -10.09145539 17.5256105 -9.98661804 21.41952515 C-9.98095825 22.21292297 -9.97529846 23.0063208 -9.96946716 23.82376099 C-9.94712451 26.35109488 -9.8969348 28.8769968 -9.84599304 31.40390015 C-9.82592519 33.12002546 -9.80767491 34.83617307 -9.79130554 36.55233765 C-9.74726699 40.75340795 -9.6782563 44.95341149 -9.59599304 49.15390015 C5.7640549 54.77074139 21.18488465 60.21566977 36.62342834 65.61239624 C38.72950416 66.34922337 40.83501357 67.08767143 42.93995667 67.82772827 C45.93419777 68.87986226 48.93051312 69.92586398 51.92744446 70.9703064 C52.83895264 71.29177139 53.75046082 71.61323639 54.68959045 71.94444275 C55.53040161 72.23600754 56.37121277 72.52757233 57.23750305 72.82797241 C57.97262115 73.08506485 58.70773926 73.34215729 59.46513367 73.60704041 C61.54947882 74.28962978 61.54947882 74.28962978 64.40400696 74.15390015 C64.47748352 72.98020874 64.47748352 72.98020874 64.55244446 71.7828064 C64.6645929 70.2649353 64.6645929 70.2649353 64.77900696 68.71640015 C64.88342102 67.20239624 64.88342102 67.20239624 64.98994446 65.6578064 C65.12658508 64.83151733 65.26322571 64.00522827 65.40400696 63.15390015 C68.34816465 61.6818213 71.36667624 61.91573695 74.59931946 61.8374939 C76.54088928 61.78033203 76.54088928 61.78033203 78.52168274 61.72201538 C81.00030823 61.65736084 81.00030823 61.65736084 83.52900696 61.59140015 C88.76775696 61.44702515 94.00650696 61.30265015 99.40400696 61.15390015 C99.73400696 45.97390015 100.06400696 30.79390015 100.40400696 15.15390015 C103.51739131 13.59720797 106.83068067 13.97417337 110.25019836 13.94857788 C111.06003677 13.93867828 111.86987518 13.92877869 112.70425415 13.9185791 C115.38799592 13.88692615 118.0717554 13.86219171 120.75556946 13.8374939 C122.61359626 13.81692764 124.47161835 13.79593126 126.32963562 13.77452087 C131.22537931 13.71926624 136.12116546 13.66987194 141.01698303 13.62167358 C146.01061288 13.5714833 151.0041809 13.51578434 155.99775696 13.46054077 C165.7997875 13.35291773 175.60187167 13.25148198 185.40400696 13.15390015 C184.4096023 11.03450445 184.4096023 11.03450445 182.40400696 9.15390015 C179.77660531 8.75240456 177.56259748 8.61337807 174.93295288 8.64596558 C174.16550403 8.63972561 173.39805517 8.63348565 172.60735029 8.6270566 C170.02762219 8.61106149 167.44883048 8.62375581 164.86909485 8.63632202 C163.02294359 8.63090373 161.17679666 8.62378273 159.33065796 8.61508179 C154.30995865 8.5968093 149.28958725 8.60393247 144.26888204 8.61659813 C139.02033033 8.62670701 133.77180718 8.6173382 128.52325439 8.61105347 C119.70716803 8.60377025 110.89121558 8.61338177 102.07514954 8.63241577 C91.87708487 8.65417903 81.67934014 8.64713978 71.48128325 8.62511015 C62.73300944 8.60696731 53.98483204 8.60439258 45.2365455 8.61486483 C40.00833195 8.62110676 34.78026883 8.6219163 29.5520649 8.60871887 C24.63623368 8.59717748 19.72081544 8.60515482 14.80502892 8.6282959 C12.99903678 8.63359244 11.19300998 8.63205311 9.38703156 8.62324524 C6.9248975 8.61234297 4.46409355 8.62598779 2.00204468 8.64596558 C1.28424412 8.63704269 0.56644357 8.6281198 -0.17310852 8.61892653 C-3.50974994 8.67158139 -5.32297051 8.95337957 -8.04248905 10.95072174 Z M108.40400696 22.15390015 C108.40400696 71.65390015 108.40400696 121.15390015 108.40400696 172.15390015 C146.02400696 172.15390015 183.64400696 172.15390015 222.40400696 172.15390015 C222.40400696 122.65390015 222.40400696 73.15390015 222.40400696 22.15390015 C184.78400696 22.15390015 147.16400696 22.15390015 108.40400696 22.15390015 Z M-6.59599304 60.15390015 C-6.66553998 69.58552723 -6.71882809 79.01706588 -6.75142956 88.44889355 C-6.76707758 92.82860059 -6.7883 97.20813204 -6.8223114 101.58773804 C-6.85493578 105.81525203 -6.87285256 110.04259725 -6.88062477 114.27022743 C-6.88616276 115.88216114 -6.89697719 117.49408574 -6.91318321 119.10594749 C-6.93499886 121.36586762 -6.93795831 123.62509263 -6.93656921 125.88510132 C-6.94323105 127.17083542 -6.94989288 128.45656952 -6.95675659 129.78126526 C-6.41356108 134.85938397 -4.79479193 137.09603083 -1.00758362 140.4380188 C3.4885658 142.69938597 7.02894295 142.68856826 11.98945618 142.60800171 C12.93642868 142.60858582 13.88340118 142.60916992 14.85906982 142.60977173 C17.97598971 142.60699439 21.0919425 142.57591838 24.20869446 142.54452515 C26.3748777 142.53706153 28.54106771 142.53136917 30.70726013 142.52737427 C36.39886736 142.51212757 42.090064 142.47285364 47.7815094 142.42855835 C53.59311876 142.3875851 59.40479468 142.36935884 65.21650696 142.34921265 C76.61254938 142.30635869 88.00817974 142.2360163 99.40400696 142.15390015 C99.40400696 130.93390015 99.40400696 119.71390015 99.40400696 108.15390015 C97.75400696 108.48390015 96.10400696 108.81390015 94.40400696 109.15390015 C86.69029312 109.81107409 79.96627389 109.58505465 73.40400696 105.15390015 C66.67703622 99.1791928 65.43552285 92.74986592 64.40400696 84.15390015 C46.72246458 77.91783893 29.03874631 71.68707499 11.31660461 65.56713867 C9.91796261 65.08380478 8.51968632 64.59941131 7.1217804 64.11395264 C5.18173994 63.44061475 3.24036861 62.77127421 1.29853821 62.1031189 C0.20388245 61.72502075 -0.89077332 61.34692261 -2.01860046 60.95736694 C-4.4642681 60.05469659 -4.4642681 60.05469659 -6.59599304 60.15390015 Z M73.40400696 70.15390015 C73.32150696 73.30952515 73.23900696 76.46515015 73.15400696 79.71640015 C73.11759094 80.69681274 73.08117493 81.67722534 73.0436554 82.68734741 C72.96755916 88.74006685 73.81782599 92.23570911 77.40400696 97.15390015 C80.54281982 100.13577237 84.17684253 101.39963705 88.46650696 101.65390015 C93.14677127 101.05958087 96.06459507 99.49331203 99.40400696 96.15390015 C99.49148903 94.22722507 99.5109803 92.29738154 99.50166321 90.3687439 C99.49791687 88.78887695 99.49791687 88.78887695 99.49409485 87.17709351 C99.48499084 85.8288147 99.47588684 84.48053589 99.46650696 83.09140015 C99.44588196 78.82202515 99.42525696 74.55265015 99.40400696 70.15390015 C90.82400696 70.15390015 82.24400696 70.15390015 73.40400696 70.15390015 Z " fill="#04C3D9" transform="translate(21.595993041992188,51.846099853515625)"/>
<path d="M0 0 C9.66222611 6.6450942 14.41206693 15.36751965 16.7890625 26.71484375 C18.12960687 36.25098893 15.19635061 45.87404703 9.57421875 53.58203125 C3.53090287 60.80227298 -2.82481463 65.87010514 -12.2109375 67.71484375 C-23.87680031 68.72072092 -33.92092538 68.03911652 -43.296875 60.4375 C-51.574629 52.9875214 -56.12082582 44.86463356 -57.44921875 33.71484375 C-57.81946971 23.73755467 -54.64573333 14.19662029 -48.1171875 6.64453125 C-34.92991429 -6.70488057 -16.41421762 -9.5411265 0 0 Z M-25.2109375 3.71484375 C-25.2109375 4.04484375 -25.2109375 4.37484375 -25.2109375 4.71484375 C-21.9109375 4.71484375 -18.6109375 4.71484375 -15.2109375 4.71484375 C-15.2109375 4.38484375 -15.2109375 4.05484375 -15.2109375 3.71484375 C-18.5109375 3.71484375 -21.8109375 3.71484375 -25.2109375 3.71484375 Z M-41.08984375 12.54296875 C-46.20645664 18.85217563 -48.67529771 25.90323404 -48.0234375 34.02734375 C-47.53248792 37.49126579 -46.78772748 40.56126379 -45.2109375 43.71484375 C-44.5096875 42.99296875 -43.8084375 42.27109375 -43.0859375 41.52734375 C-35.77352666 34.2357068 -35.77352666 34.2357068 -31.2109375 32.71484375 C-32.60853655 29.16965491 -32.60853655 29.16965491 -34.2109375 25.71484375 C-34.7347951 20.4590921 -34.87599122 16.0695828 -32.5234375 11.27734375 C-30.25188138 8.760214 -27.95741845 6.69841332 -25.2109375 4.71484375 C-31.58122826 4.71484375 -36.57060223 8.1458689 -41.08984375 12.54296875 Z M-15.2109375 4.71484375 C-14.4684375 5.25109375 -13.7259375 5.78734375 -12.9609375 6.33984375 C-9.17575211 9.6088675 -6.53835665 12.24101017 -5.859375 17.37109375 C-5.70283545 22.66497682 -5.86260076 26.38990879 -9.2109375 30.71484375 C-9.2109375 31.37484375 -9.2109375 32.03484375 -9.2109375 32.71484375 C-8.1178125 33.35421875 -7.0246875 33.99359375 -5.8984375 34.65234375 C-5.28355469 35.01199219 -4.66867188 35.37164062 -4.03515625 35.7421875 C-2.07274195 36.85385622 -2.07274195 36.85385622 0.7890625 37.71484375 C1.8515625 39.65234375 1.8515625 39.65234375 2.7890625 41.71484375 C3.4490625 42.37484375 4.1090625 43.03484375 4.7890625 43.71484375 C8.18991433 35.93323362 8.66318967 29.08940679 5.84375 21.00390625 C2.24522531 13.06808691 -3.08093132 7.96684622 -11.2109375 4.71484375 C-12.5309375 4.71484375 -13.8509375 4.71484375 -15.2109375 4.71484375 Z M-26.2109375 16.71484375 C-26.6796668 19.92898753 -26.8350465 21.8098857 -24.9609375 24.52734375 C-22.94706755 25.89389836 -21.6415813 26.49387613 -19.2109375 26.71484375 C-16.54487731 25.72459282 -15.49703985 25.28704845 -14.2109375 22.71484375 C-13.8216633 18.56358376 -13.8216633 18.56358376 -15.3984375 14.83984375 C-19.42566093 12.34018783 -23.13107048 13.29276928 -26.2109375 16.71484375 Z M-35.0234375 45.65234375 C-36.95260587 48.35317947 -37.58882162 49.61764321 -38.2109375 52.71484375 C-36.94262057 53.53126629 -35.67117819 54.3428348 -34.3984375 55.15234375 C-33.69074219 55.60480469 -32.98304688 56.05726563 -32.25390625 56.5234375 C-26.47691171 59.89243049 -19.67121826 59.34712655 -13.2109375 58.71484375 C-6.66477809 56.55938918 -6.66477809 56.55938918 -2.2109375 51.71484375 C-4.19089389 46.47378272 -6.80198389 43.92970576 -11.2109375 40.71484375 C-19.76403003 37.86381291 -28.88940969 38.80787769 -35.0234375 45.65234375 Z " fill="#04DAD4" transform="translate(207.2109375,93.28515625)"/>
<path d="M0 0 C0.76177048 -0.00540298 1.52354095 -0.01080597 2.30839539 -0.01637268 C4.81211895 -0.02882157 7.31468388 -0.0123955 9.81835938 0.00561523 C11.56661031 0.00546016 13.31486159 0.00396971 15.06311035 0.00120544 C18.721428 -0.00017682 22.37935277 0.0123505 26.03759766 0.03515625 C30.71834358 0.06354044 35.39843706 0.06080129 40.07923126 0.04806614 C43.68757667 0.04109911 47.29577224 0.04890992 50.90409851 0.06132317 C52.62960739 0.06582772 54.35513241 0.06618319 56.0806427 0.06225777 C58.49550141 0.05933545 60.90947245 0.07590034 63.32421875 0.09765625 C64.38578438 0.09090378 64.38578438 0.09090378 65.46879578 0.08401489 C71.25708861 0.17031826 75.22337643 1.7201706 79.47460938 5.62670898 C81.75123935 9.5054119 81.96894601 13.06860968 82.16210938 17.50170898 C83.15210938 17.50170898 84.14210938 17.50170898 85.16210938 17.50170898 C85.16210938 20.47170898 85.16210938 23.44170898 85.16210938 26.50170898 C80.21210938 26.50170898 75.26210937 26.50170898 70.16210938 26.50170898 C70.16210938 23.53170898 70.16210938 20.56170898 70.16210938 17.50170898 C71.15210938 17.50170898 72.14210938 17.50170898 73.16210938 17.50170898 C72.56027189 15.48125456 71.88904841 13.48059859 71.16210938 11.50170898 C68.23503008 10.03816934 65.29046059 10.35434101 62.08203125 10.35644531 C61.35343399 10.3530867 60.62483673 10.34972809 59.87416077 10.3462677 C57.45970975 10.33674906 55.045328 10.33481426 52.63085938 10.33374023 C50.95699026 10.33052874 49.28312144 10.32716475 47.60925293 10.32365417 C44.09870757 10.31766094 40.58818684 10.31581452 37.07763672 10.31640625 C32.57139463 10.31650799 28.06530971 10.30284478 23.55910492 10.28563404 C20.10194162 10.2745366 16.64481662 10.27248633 13.18763733 10.27301598 C11.52579709 10.27183287 9.86395596 10.26739269 8.20213318 10.25968361 C5.88203792 10.24992724 3.56228787 10.25274409 1.2421875 10.25878906 C0.20572838 10.2503598 0.20572838 10.2503598 -0.85166931 10.24176025 C-4.7864045 10.17093621 -4.7864045 10.17093621 -7.83789062 12.50170898 C-8.48556855 15.07232209 -8.48556855 15.07232209 -8.83789062 17.50170898 C-7.84789063 17.50170898 -6.85789062 17.50170898 -5.83789062 17.50170898 C-5.83789062 20.47170898 -5.83789062 23.44170898 -5.83789062 26.50170898 C-10.78789063 26.50170898 -15.73789062 26.50170898 -20.83789062 26.50170898 C-20.83789062 23.53170898 -20.83789062 20.56170898 -20.83789062 17.50170898 C-19.84789062 17.50170898 -18.85789063 17.50170898 -17.83789062 17.50170898 C-17.92039063 16.47045898 -18.00289062 15.43920898 -18.08789062 14.37670898 C-17.79060659 9.76880644 -16.7947827 8.00329171 -13.83789062 4.50170898 C-9.26780355 0.81543823 -5.73380806 -0.07832904 0 0 Z " fill="#04E5D1" transform="translate(77.837890625,22.498291015625)"/>
<path d="M0 0 C1.33875687 0.00303635 1.33875687 0.00303635 2.70455933 0.00613403 C4.10688309 0.00350555 4.10688309 0.00350555 5.53753662 0.00082397 C8.6440107 -0.00359617 11.75042837 -0.00065598 14.85690308 0.00271606 C17.00542207 0.00204307 19.15394099 0.00107309 21.30245972 -0.00018311 C25.81182579 -0.0016603 30.3211721 0.00049517 34.83053589 0.00515747 C40.62488885 0.01085477 46.41919549 0.00757588 52.21354675 0.00158501 C56.65203198 -0.00202002 61.09050614 -0.00088229 65.5289917 0.0017128 C67.66613775 0.00238223 69.80328479 0.00155309 71.94042969 -0.00076675 C74.92172934 -0.00329233 77.90295288 0.00054597 80.88424683 0.00613403 C81.7767514 0.0041098 82.66925598 0.00208557 83.58880615 0 C89.68014075 0.02126624 89.68014075 0.02126624 90.79440308 1.13552856 C91.04440308 4.07302856 91.04440308 4.07302856 90.79440308 7.13552856 C86.88467135 9.74201638 83.59111727 9.41605109 79.05612183 9.39431763 C77.71670029 9.39957458 77.71670029 9.39957458 76.35021973 9.40493774 C73.39403545 9.41375129 70.43808985 9.40790721 67.48190308 9.40115356 C65.43071446 9.40250032 63.37952615 9.40444094 61.32833862 9.4069519 C57.02760786 9.40990266 52.72696013 9.40560706 48.42623901 9.39627075 C42.90785616 9.38487628 37.38966783 9.39143601 31.87129211 9.40341568 C27.63516773 9.41063557 23.39908963 9.40834575 19.16296387 9.4031601 C17.1279498 9.40182396 15.09293156 9.40347006 13.05792236 9.4081192 C10.21606279 9.4131865 7.37452023 9.40547126 4.53268433 9.39431763 C3.26553085 9.40039032 3.26553085 9.40039032 1.97277832 9.40658569 C-1.93534588 9.37810564 -3.87946353 9.35295083 -7.20559692 7.13552856 C-7.45559692 4.07302856 -7.45559692 4.07302856 -7.20559692 1.13552856 C-5.30807789 -0.76199047 -2.52501922 0.00881542 0 0 Z " fill="#04B4DA" transform="translate(145.20559692382813,198.86447143554688)"/>
<path d="M0 0 C8.5880572 -0.02312635 17.17610149 -0.04091658 25.76418209 -0.05181217 C29.751572 -0.05704036 33.73894067 -0.06413684 37.72631836 -0.07543945 C41.57125114 -0.08627061 45.41616345 -0.09227732 49.26111031 -0.09487724 C50.73118983 -0.09673108 52.20126818 -0.10035091 53.67133904 -0.10573006 C55.72354467 -0.11294355 57.77566467 -0.11399081 59.82788086 -0.11352539 C61.58327431 -0.11685631 61.58327431 -0.11685631 63.37413025 -0.12025452 C66 0 66 0 67 1 C67.25 3.9375 67.25 3.9375 67 7 C63.51169676 9.32553549 62.13580188 9.25275066 58.015625 9.25878906 C56.78424805 9.26509338 55.55287109 9.27139771 54.28417969 9.27789307 C52.93945167 9.27431326 51.59472496 9.2702113 50.25 9.265625 C48.87141857 9.26697231 47.49283761 9.2689134 46.11425781 9.27142334 C43.22586541 9.27437151 40.33759676 9.27008693 37.44921875 9.26074219 C33.7468277 9.24934771 30.04472661 9.25590884 26.34234619 9.26788712 C23.49590876 9.27511407 20.64954008 9.27281397 17.80310059 9.26763153 C16.43794724 9.26629734 15.07278766 9.26793469 13.7076416 9.27259064 C11.79988728 9.27766927 9.89211108 9.26855616 7.984375 9.25878906 C6.89866211 9.25719788 5.81294922 9.25560669 4.69433594 9.25396729 C2 9 2 9 -1 7 C-0.67 4.69 -0.34 2.38 0 0 Z " fill="#05BFDA" transform="translate(154,172)"/>
<path d="M0 0 C0.63153488 0.32342377 1.26306976 0.64684753 1.91374207 0.98007202 C6.11202574 2.36749558 9.9852841 2.30805564 14.38012695 2.31884766 C15.31719986 2.32889328 16.25427277 2.3389389 17.21974182 2.34928894 C20.30924887 2.38011701 23.39866927 2.39715517 26.48828125 2.4140625 C28.63348638 2.43277443 30.77868416 2.45234786 32.9238739 2.4727478 C38.5642971 2.52407223 44.20474416 2.56369641 49.84527588 2.60089111 C55.60329086 2.64092871 61.36120655 2.6920222 67.11914062 2.7421875 C78.41269067 2.83895053 89.70629677 2.92335422 101 3 C101 3.33 101 3.66 101 4 C51.995 4.495 51.995 4.495 2 5 C1.34 3.35 0.68 1.7 0 0 Z " fill="#1C92C8" transform="translate(19,191)"/>
<path d="M0 0 C1.58468677 0.45363171 3.16769924 0.91311452 4.75 1.375 C5.63171875 1.63023438 6.5134375 1.88546875 7.421875 2.1484375 C9.76080572 2.9209934 11.83442562 3.83625676 14 5 C14 5.99 14 6.98 14 8 C12.68 8 11.36 8 10 8 C9.67 7.01 9.34 6.02 9 5 C6.90280128 3.97718482 6.90280128 3.97718482 4.4375 3.3125 C3.61121094 3.06113281 2.78492188 2.80976562 1.93359375 2.55078125 C1.29550781 2.36902344 0.65742187 2.18726562 0 2 C0 1.34 0 0.68 0 0 Z " fill="#0CB5D4" transform="translate(38,110)"/>
<path d="M0 0 C0.66386719 0.31710938 1.32773437 0.63421875 2.01171875 0.9609375 C5.60924343 2.21184151 9.0439801 2.45190052 12.8125 2.625 C13.85180664 2.68300781 13.85180664 2.68300781 14.91210938 2.7421875 C16.60767015 2.83573568 18.30379712 2.91892364 20 3 C20 3.33 20 3.66 20 4 C14.06 4.33 8.12 4.66 2 5 C1.34 3.35 0.68 1.7 0 0 Z " fill="#148BD4" transform="translate(19,191)"/>
<path d="M0 0 C2.97 0.495 2.97 0.495 6 1 C6 1.66 6 2.32 6 3 C7.32 3.33 8.64 3.66 10 4 C10 4.66 10 5.32 10 6 C10.66 6.33 11.32 6.66 12 7 C7.02125936 6.52583422 3.93281242 5.0900669 0 2 C0 1.34 0 0.68 0 0 Z " fill="#0CC5CE" transform="translate(166,153)"/>
<path d="M0 0 C0.99 0 1.98 0 3 0 C3 1.98 3 3.96 3 6 C1.02 6.99 1.02 6.99 -1 8 C-0.67 5.36 -0.34 2.72 0 0 Z " fill="#09D0D5" transform="translate(218,173)"/>
<path d="M0 0 C0 1.98 0 3.96 0 6 C-1.9375 5.1875 -1.9375 5.1875 -4 4 C-4.33 3.01 -4.66 2.02 -5 1 C-2 0 -2 0 0 0 Z " fill="#108EE5" transform="translate(14,192)"/>
<path d="M0 0 C2.64 0 5.28 0 8 0 C8 0.66 8 1.32 8 2 C9.32 2 10.64 2 12 2 C12 2.66 12 3.32 12 4 C10.5608866 3.71640113 9.12374482 3.42278601 7.6875 3.125 C6.88699219 2.96257812 6.08648437 2.80015625 5.26171875 2.6328125 C3 2 3 2 0 0 Z " fill="#11B2D2" transform="translate(46,122)"/>
<path d="M0 0 C2.0625 0.4375 2.0625 0.4375 4 1 C3.34 2.98 2.68 4.96 2 7 C0 4 0 4 -1 1 C-0.67 0.67 -0.34 0.34 0 0 Z " fill="#0DD5C8" transform="translate(203,138)"/>
<path d="M0 0 C0.99 0.33 1.98 0.66 3 1 C2.67 2.65 2.34 4.3 2 6 C1.67 5.34 1.34 4.68 1 4 C0.34 4 -0.32 4 -1 4 C-0.67 2.68 -0.34 1.36 0 0 Z " fill="#01DEDF" transform="translate(161,100)"/>
</svg>
